<svg width="110" height="35" viewBox="0 0 110 35" fill="none" xmlns="http://www.w3.org/2000/svg">
<path d="M48.74 19.5726C48.9071 19.5726 49.0475 19.6285 49.1611 19.7403L50.3545 20.9233C49.7661 21.6188 49.0341 22.1467 48.1583 22.5068C47.2892 22.867 46.253 23.0471 45.0497 23.0471C43.96 23.0471 42.9806 22.8763 42.1115 22.5348C41.2424 22.187 40.5036 21.7058 39.8953 21.091C39.2869 20.4762 38.819 19.7465 38.4914 18.9019C38.1638 18.0574 38 17.1352 38 16.1353C38 15.4647 38.0769 14.8281 38.2306 14.2258C38.3911 13.6172 38.6217 13.0583 38.9226 12.549C39.2234 12.0398 39.5844 11.5803 40.0056 11.1704C40.4335 10.7605 40.9148 10.4128 41.4496 10.1271C41.9844 9.83525 42.5661 9.61479 43.1945 9.46575C43.8296 9.3105 44.5048 9.23288 45.2201 9.23288C45.755 9.23288 46.2597 9.27635 46.7344 9.36329C47.2157 9.45023 47.6636 9.57132 48.0781 9.72658C48.4926 9.88183 48.8737 10.0712 49.2213 10.2948C49.5756 10.5121 49.8932 10.7512 50.174 11.0121L49.1611 12.2975C49.101 12.3783 49.0241 12.4497 48.9305 12.5118C48.8369 12.5739 48.7099 12.6049 48.5494 12.6049C48.389 12.6049 48.2252 12.5521 48.058 12.4466C47.8976 12.341 47.697 12.223 47.4564 12.0926C47.2224 11.9622 46.9249 11.8442 46.5639 11.7386C46.2096 11.6331 45.7583 11.5803 45.2101 11.5803C44.6017 11.5803 44.0435 11.6827 43.5354 11.8877C43.0274 12.0926 42.5895 12.3907 42.2218 12.7819C41.8608 13.1669 41.58 13.642 41.3794 14.2071C41.1789 14.7722 41.0786 15.415 41.0786 16.1353C41.0786 16.8619 41.1855 17.5109 41.3995 18.0822C41.6201 18.6473 41.9176 19.1255 42.292 19.5167C42.673 19.9079 43.1143 20.206 43.6157 20.411C44.1237 20.6097 44.6653 20.709 45.2402 20.709C45.5811 20.709 45.8887 20.6935 46.1628 20.6625C46.4435 20.6314 46.7009 20.5786 46.9349 20.5041C47.1756 20.4296 47.3995 20.3333 47.6068 20.2153C47.8207 20.0974 48.0346 19.9483 48.2486 19.7682C48.3221 19.7123 48.399 19.6658 48.4792 19.6285C48.5594 19.5912 48.6464 19.5726 48.74 19.5726Z" fill="white"/>
<path d="M54.4394 14.2351C54.6333 14.0736 54.8339 13.9277 55.0411 13.7973C55.255 13.6606 55.479 13.5458 55.713 13.4526C55.9537 13.3532 56.2077 13.2787 56.4751 13.229C56.7492 13.1732 57.0434 13.1452 57.3576 13.1452C57.9191 13.1452 58.4172 13.2353 58.8517 13.4153C59.2863 13.5954 59.6506 13.8469 59.9448 14.1699C60.2456 14.4928 60.4696 14.8778 60.6167 15.3249C60.7704 15.7721 60.8473 16.2626 60.8473 16.7967V22.8981H58.0896V16.7967C58.0896 16.2626 57.9559 15.8497 57.6885 15.5578C57.4211 15.2597 57.0267 15.1107 56.5052 15.1107C56.1175 15.1107 55.7531 15.1883 55.4121 15.3436C55.0712 15.4988 54.747 15.7162 54.4394 15.9956V22.8981H51.6717V9.00932H54.4394V14.2351Z" fill="white"/>
<path d="M65.899 13.2942V22.8981H63.1313V13.2942H65.899ZM66.23 10.5649C66.23 10.7823 66.1832 10.9841 66.0896 11.1704C65.996 11.3567 65.869 11.5213 65.7085 11.6641C65.5548 11.8069 65.3709 11.9187 65.157 11.9995C64.9497 12.0802 64.7258 12.1205 64.4851 12.1205C64.2578 12.1205 64.0405 12.0802 63.8333 11.9995C63.6327 11.9187 63.4556 11.8069 63.3018 11.6641C63.148 11.5213 63.0244 11.3567 62.9308 11.1704C62.8439 10.9841 62.8004 10.7823 62.8004 10.5649C62.8004 10.3476 62.8439 10.1458 62.9308 9.95945C63.0244 9.76694 63.148 9.59927 63.3018 9.45644C63.4556 9.31361 63.6327 9.20183 63.8333 9.1211C64.0405 9.04037 64.2578 9 64.4851 9C64.7258 9 64.9497 9.04037 65.157 9.1211C65.3709 9.20183 65.5548 9.31361 65.7085 9.45644C65.869 9.59927 65.996 9.76694 66.0896 9.95945C66.1832 10.1458 66.23 10.3476 66.23 10.5649Z" fill="white"/>
<path d="M71.0287 20.3644C71.2894 20.6438 71.5702 20.8395 71.871 20.9512C72.1785 21.063 72.5061 21.1189 72.8538 21.1189C73.188 21.1189 73.4922 21.0599 73.7663 20.9419C74.0404 20.8239 74.2744 20.6407 74.4683 20.3923C74.6688 20.1377 74.8226 19.8148 74.9295 19.4236C75.0365 19.0323 75.09 18.5666 75.09 18.0263C75.09 17.4922 75.0432 17.0389 74.9496 16.6663C74.8627 16.2937 74.7357 15.9925 74.5685 15.7627C74.4081 15.533 74.2109 15.3684 73.9769 15.269C73.7429 15.1635 73.4822 15.1107 73.1947 15.1107C72.7067 15.1107 72.2955 15.2007 71.9613 15.3808C71.6337 15.5547 71.3228 15.8124 71.0287 16.154V20.3644ZM70.8682 14.5518C71.0755 14.3406 71.2961 14.1481 71.5301 13.9742C71.764 13.7942 72.0147 13.642 72.2822 13.5178C72.5496 13.3874 72.837 13.288 73.1446 13.2197C73.4521 13.1452 73.7864 13.1079 74.1474 13.1079C74.7022 13.1079 75.2103 13.2197 75.6716 13.4433C76.1396 13.6606 76.5407 13.9805 76.875 14.4027C77.2092 14.8188 77.47 15.3311 77.6572 15.9397C77.8443 16.5483 77.9379 17.2438 77.9379 18.0263C77.9379 18.7467 77.831 19.4142 77.617 20.029C77.4098 20.6376 77.1123 21.1655 76.7245 21.6126C76.3368 22.0597 75.8688 22.4106 75.3206 22.6652C74.7791 22.9136 74.1741 23.0378 73.5056 23.0378C72.944 23.0378 72.466 22.9602 72.0716 22.8049C71.6838 22.6497 71.3362 22.4385 71.0287 22.1715V26H68.261V13.2942H69.9657C70.3133 13.2942 70.544 13.4433 70.6576 13.7414L70.8682 14.5518Z" fill="white"/>
<path d="M88.0677 11.6362H83.8159V22.8981H80.7975V11.6362H76.5456V9.38192H88.0677V11.6362Z" fill="white"/>
<path d="M90.1503 14.8778C90.4779 14.3313 90.8556 13.8997 91.2834 13.583C91.7113 13.2663 92.2127 13.1079 92.7876 13.1079C93.2556 13.1079 93.6367 13.2104 93.9308 13.4153L93.7503 15.3156C93.7169 15.4398 93.6634 15.5268 93.5899 15.5764C93.523 15.6199 93.4294 15.6416 93.3091 15.6416C93.2021 15.6416 93.0484 15.6292 92.8478 15.6044C92.6472 15.5733 92.46 15.5578 92.2862 15.5578C92.0322 15.5578 91.8049 15.592 91.6043 15.6603C91.4105 15.7286 91.2366 15.8248 91.0829 15.949C90.9291 16.0732 90.7887 16.2254 90.6617 16.4055C90.5414 16.5856 90.4277 16.7905 90.3207 17.0203V22.8981H87.553V13.2942H89.1876C89.4684 13.2942 89.6622 13.3408 89.7692 13.434C89.8762 13.5271 89.9531 13.6886 89.9999 13.9184L90.1503 14.8778Z" fill="white"/>
<path d="M97.9611 13.2942V22.8981H95.1934V13.2942H97.9611ZM98.292 10.5649C98.292 10.7823 98.2452 10.9841 98.1516 11.1704C98.0581 11.3567 97.931 11.5213 97.7706 11.6641C97.6168 11.8069 97.433 11.9187 97.219 11.9995C97.0118 12.0802 96.7878 12.1205 96.5472 12.1205C96.3199 12.1205 96.1026 12.0802 95.8954 11.9995C95.6948 11.9187 95.5176 11.8069 95.3639 11.6641C95.2101 11.5213 95.0864 11.3567 94.9928 11.1704C94.9059 10.9841 94.8625 10.7823 94.8625 10.5649C94.8625 10.3476 94.9059 10.1458 94.9928 9.95945C95.0864 9.76694 95.2101 9.59927 95.3639 9.45644C95.5176 9.31361 95.6948 9.20183 95.8954 9.1211C96.1026 9.04037 96.3199 9 96.5472 9C96.7878 9 97.0118 9.04037 97.219 9.1211C97.433 9.20183 97.6168 9.31361 97.7706 9.45644C97.931 9.59927 98.0581 9.76694 98.1516 9.95945C98.2452 10.1458 98.292 10.3476 98.292 10.5649Z" fill="white"/>
<path d="M103.091 20.3644C103.351 20.6438 103.632 20.8395 103.933 20.9512C104.241 21.063 104.568 21.1189 104.916 21.1189C105.25 21.1189 105.554 21.0599 105.828 20.9419C106.102 20.8239 106.336 20.6407 106.53 20.3923C106.731 20.1377 106.885 19.8148 106.992 19.4236C107.099 19.0323 107.152 18.5666 107.152 18.0263C107.152 17.4922 107.105 17.0389 107.012 16.6663C106.925 16.2937 106.798 15.9925 106.631 15.7627C106.47 15.533 106.273 15.3684 106.039 15.269C105.805 15.1635 105.544 15.1107 105.257 15.1107C104.769 15.1107 104.358 15.2007 104.023 15.3808C103.696 15.5547 103.385 15.8124 103.091 16.154V20.3644ZM102.93 14.5518C103.138 14.3406 103.358 14.1481 103.592 13.9742C103.826 13.7942 104.077 13.642 104.344 13.5178C104.612 13.3874 104.899 13.288 105.207 13.2197C105.514 13.1452 105.848 13.1079 106.209 13.1079C106.764 13.1079 107.272 13.2197 107.734 13.4433C108.202 13.6606 108.603 13.9805 108.937 14.4027C109.271 14.8188 109.532 15.3311 109.719 15.9397C109.906 16.5483 110 17.2438 110 18.0263C110 18.7467 109.893 19.4142 109.679 20.029C109.472 20.6376 109.174 21.1655 108.787 21.6126C108.399 22.0597 107.931 22.4106 107.383 22.6652C106.841 22.9136 106.236 23.0378 105.568 23.0378C105.006 23.0378 104.528 22.9602 104.134 22.8049C103.746 22.6497 103.398 22.4385 103.091 22.1715V26H100.323V13.2942H102.028C102.375 13.2942 102.606 13.4433 102.72 13.7414L102.93 14.5518Z" fill="white"/>
<path d="M34.8202 12.5426C34.1227 11.1805 32.9602 10.1195 31.5477 9.55589C30.6994 9.21113 29.7869 9.05723 28.8737 9.10491C27.9605 9.1526 27.0686 9.40071 26.26 9.83199L19.0657 14.0073L11.9308 6.59677C11.8495 6.51237 11.7434 6.45666 11.6283 6.43789C11.5132 6.41912 11.3952 6.43828 11.2917 6.49254L8.20994 8.11119C8.08343 8.17933 7.98838 8.29481 7.94519 8.43288C7.902 8.57094 7.91409 8.72059 7.97888 8.84976L12.5769 17.7754L5.52882 21.8666L2.98784 19.2036C2.90662 19.1184 2.80029 19.062 2.68472 19.0428C2.56915 19.0237 2.45055 19.0428 2.34661 19.0973L0.292364 20.1754C0.22911 20.2086 0.172956 20.2541 0.12711 20.3092C0.0812635 20.3644 0.0466225 20.4281 0.0251656 20.4967C0.00370862 20.5654 -0.00414383 20.6376 0.00205673 20.7093C0.0082573 20.7811 0.0283894 20.8508 0.0613031 20.9147L2.78276 26.1986C3.12087 26.8567 3.69704 27.3579 4.3916 27.5983C5.08616 27.8387 5.84572 27.7996 6.51254 27.4894L15.4596 23.3713L20.2682 32.7042C20.3356 32.832 20.45 32.9279 20.5868 32.9715C20.7235 33.0152 20.8717 33.0029 20.9996 32.9375L24.0813 31.3196C24.185 31.2652 24.2685 31.1786 24.3194 31.0725C24.3704 30.9664 24.3862 30.8466 24.3644 30.7308L22.3716 20.1644L27.6587 17.7409C27.7246 17.7118 27.7841 17.6698 27.8338 17.6173C27.8835 17.5648 27.9223 17.5029 27.9481 17.4351C27.9739 17.3673 27.986 17.295 27.9839 17.2224C27.9818 17.1498 27.9654 17.0784 27.9357 17.0123C27.9059 16.9461 27.8635 16.8866 27.8108 16.8372C27.7581 16.7878 27.6963 16.7494 27.6288 16.7243C27.5613 16.6993 27.4895 16.688 27.4177 16.6912C27.3458 16.6943 27.2753 16.7119 27.2102 16.7428L21.5342 19.3451C21.4236 19.3958 21.333 19.4825 21.277 19.5914C21.2209 19.7003 21.2027 19.825 21.2252 19.9456L23.222 30.5348L20.9805 31.7123L16.1849 22.4043C16.1208 22.2798 16.0118 22.185 15.8804 22.1392C15.749 22.0935 15.6053 22.1004 15.4788 22.1585L6.05999 26.4933C5.64634 26.6861 5.17501 26.7105 4.74402 26.5613C4.31304 26.4122 3.95557 26.1011 3.74597 25.6926L1.27471 20.8954L2.48744 20.2583L5.04209 22.9344C5.12609 23.0223 5.23675 23.0793 5.35652 23.0964C5.47628 23.1136 5.59828 23.0898 5.70314 23.0289L26.7905 10.788C27.5723 10.3783 28.4441 10.1753 29.3246 10.1978L27.5951 11.1069C27.4675 11.174 27.3715 11.2894 27.3282 11.4279C27.2849 11.5664 27.2978 11.7166 27.364 11.8455L28.4325 13.9204C28.5 14.0481 28.6144 14.1441 28.7511 14.1877C28.8878 14.2313 29.0361 14.2191 29.164 14.1537L33.1823 12.0429C33.4444 12.3506 33.6706 12.6879 33.8563 13.0479C33.8904 13.1155 33.9107 13.1894 33.9159 13.2651C33.9211 13.3408 33.9112 13.4168 33.8867 13.4886C33.8622 13.5604 33.8236 13.6264 33.7733 13.6828C33.723 13.7392 33.6619 13.7848 33.5938 13.8168L29.058 15.8952C28.9269 15.9553 28.8249 16.0656 28.7743 16.2017C28.7237 16.3378 28.7288 16.4886 28.7883 16.621C28.8479 16.7533 28.9571 16.8564 29.0919 16.9074C29.2267 16.9585 29.3761 16.9534 29.5072 16.8933L34.0422 14.8142C34.8851 14.4277 35.2474 13.373 34.8195 12.5426H34.8202ZM13.5189 17.2281L9.19161 8.82974L11.4339 7.65286L18.0943 14.572L13.5189 17.2281ZM29.1462 12.9278L28.5781 11.8261L31.0391 10.5333C31.5047 10.7087 31.9433 10.9497 32.3421 11.2491L29.1455 12.9278H29.1462Z" fill="white"/>
<path d="M27.1459 13.2784C27.113 13.2146 27.068 13.1579 27.0134 13.1116C26.9588 13.0653 26.8957 13.0303 26.8277 13.0086C26.7597 12.987 26.6882 12.979 26.6172 12.9853C26.5461 12.9916 26.477 13.0119 26.4138 13.0451L25.3863 13.5849C25.2688 13.648 25.1781 13.7522 25.131 13.8779C25.084 14.0037 25.0838 14.1424 25.1306 14.2682C25.1588 14.3396 25.2014 14.4043 25.2557 14.4582C25.3099 14.5121 25.3747 14.554 25.4459 14.5812C25.5171 14.6084 25.5931 14.6203 25.6691 14.6162C25.7451 14.6122 25.8195 14.5921 25.8874 14.5575L26.9142 14.0177C27.0417 13.9506 27.1377 13.8352 27.1811 13.6967C27.2244 13.5582 27.2115 13.408 27.1452 13.2791L27.1459 13.2784ZM24.0635 14.8971C23.9971 14.7683 23.8828 14.6713 23.7456 14.6276C23.6085 14.5839 23.4597 14.5969 23.3321 14.6638L22.3046 15.2035C22.1871 15.2667 22.0963 15.3709 22.0493 15.4966C22.0022 15.6223 22.0021 15.7611 22.0489 15.8869C22.0771 15.9583 22.1197 16.023 22.1739 16.0769C22.2282 16.1307 22.293 16.1726 22.3642 16.1998C22.4354 16.227 22.5114 16.239 22.5874 16.2349C22.6634 16.2308 22.7378 16.2108 22.8057 16.1761L23.8332 15.6363C23.8964 15.6031 23.9526 15.5576 23.9984 15.5025C24.0443 15.4474 24.0789 15.3837 24.1003 15.315C24.1218 15.2464 24.1297 15.1741 24.1235 15.1024C24.1173 15.0307 24.0971 14.9609 24.0642 14.8971H24.0635ZM20.9825 16.5157C20.9161 16.3869 20.8017 16.29 20.6646 16.2462C20.5274 16.2025 20.3787 16.2155 20.251 16.2824L19.2236 16.8215C19.1059 16.8845 19.015 16.9886 18.9679 17.1144C18.9207 17.2401 18.9205 17.3789 18.9672 17.5048C18.9953 17.5763 19.0378 17.6411 19.0921 17.695C19.1463 17.749 19.2111 17.7909 19.2823 17.8182C19.3535 17.8455 19.4295 17.8575 19.5056 17.8534C19.5816 17.8494 19.656 17.8294 19.724 17.7947L20.7514 17.255C20.8147 17.2218 20.8708 17.1763 20.9167 17.1212C20.9625 17.066 20.9972 17.0023 21.0186 16.9337C21.0401 16.865 21.0479 16.7928 21.0417 16.7211C21.0355 16.6493 21.0154 16.5796 20.9825 16.5157ZM17.9008 18.1344C17.8343 18.0055 17.72 17.9086 17.5829 17.8649C17.4457 17.8211 17.297 17.8341 17.1693 17.901L16.1418 18.4401C16.0242 18.5032 15.9333 18.6073 15.8861 18.733C15.839 18.8588 15.8387 18.9976 15.8855 19.1235C15.9136 19.1949 15.9562 19.2596 16.0105 19.3135C16.0648 19.3673 16.1296 19.4092 16.2008 19.4364C16.272 19.4636 16.348 19.4756 16.424 19.4715C16.5 19.4674 16.5743 19.4474 16.6422 19.4127L17.6697 18.8729C17.7973 18.8058 17.8933 18.6904 17.9366 18.5519C17.9799 18.4134 17.967 18.2633 17.9008 18.1344ZM14.8191 19.7523C14.7525 19.6236 14.6381 19.5269 14.501 19.4832C14.3638 19.4396 14.2152 19.4527 14.0876 19.5197L13.0601 20.0588C12.9425 20.1218 12.8516 20.2259 12.8044 20.3517C12.7572 20.4774 12.757 20.6162 12.8038 20.7421C12.8319 20.8136 12.8745 20.8784 12.9288 20.9323C12.9832 20.9863 13.048 21.0282 13.1193 21.0554C13.1906 21.0826 13.2667 21.0945 13.3428 21.0904C13.4189 21.0863 13.4933 21.0661 13.5612 21.0313L14.588 20.4916C14.7156 20.4245 14.8115 20.309 14.8549 20.1706C14.8982 20.0321 14.8853 19.8819 14.8191 19.753V19.7523ZM11.7373 21.371C11.6709 21.2421 11.5566 21.1452 11.4194 21.1015C11.2823 21.0577 11.1335 21.0707 11.0059 21.1376L9.97841 21.6774C9.86089 21.7406 9.77015 21.8447 9.7231 21.9705C9.67606 22.0962 9.67593 22.2349 9.72274 22.3608C9.7509 22.4322 9.79347 22.4969 9.84775 22.5508C9.90203 22.6046 9.96683 22.6465 10.038 22.6737C10.1092 22.7009 10.1852 22.7129 10.2612 22.7088C10.3372 22.7047 10.4116 22.6847 10.4795 22.65L11.5063 22.1102C11.6338 22.0431 11.7298 21.9277 11.7732 21.7892C11.8165 21.6507 11.8036 21.5005 11.7373 21.3716V21.371ZM8.65631 22.9896C8.62341 22.9257 8.57838 22.869 8.52378 22.8227C8.46918 22.7764 8.40609 22.7415 8.3381 22.7198C8.27011 22.6981 8.19856 22.6902 8.12753 22.6965C8.05651 22.7027 7.9874 22.7231 7.92416 22.7563L6.89669 23.2961C6.77918 23.3592 6.68843 23.4634 6.64138 23.5891C6.59434 23.7149 6.59421 23.8536 6.64102 23.9794C6.66925 24.0508 6.71187 24.1154 6.76618 24.1692C6.82049 24.223 6.8853 24.2648 6.95648 24.2919C7.02766 24.3191 7.10365 24.331 7.17963 24.3268C7.2556 24.3227 7.3299 24.3026 7.39778 24.2679L8.42525 23.7289C8.4885 23.6956 8.54465 23.6502 8.5905 23.595C8.63635 23.5399 8.67099 23.4762 8.69244 23.4076C8.7139 23.3389 8.72175 23.2667 8.71555 23.1949C8.70935 23.1232 8.68922 23.0535 8.65631 22.9896ZM14.4896 31.566H14.2708C14.069 31.1269 13.7175 30.7757 13.2805 30.5765C12.8435 30.3773 12.3502 30.3433 11.8905 30.4809C11.7002 30.1022 11.4094 29.7843 11.0504 29.563C10.6915 29.3416 10.2787 29.2254 9.85809 29.2274C9.4401 29.2278 9.03023 29.3441 8.67318 29.5636C8.31613 29.783 8.02559 30.0972 7.83324 30.4719C7.49596 30.3828 7.14294 30.3729 6.80128 30.443C6.45962 30.5131 6.13841 30.6613 5.86231 30.8762C5.5862 31.0912 5.36255 31.3671 5.20851 31.6829C5.05447 31.9987 4.97414 32.346 4.97369 32.698C4.97424 33.3084 5.21461 33.8936 5.64204 34.3252C6.06948 34.7567 6.64905 34.9995 7.25354 35H14.4896C14.9405 34.9996 15.3729 34.8186 15.6918 34.4966C16.0107 34.1746 16.19 33.738 16.1904 33.2826C16.1898 32.8274 16.0104 32.391 15.6916 32.0691C15.3727 31.7473 14.9404 31.5664 14.4896 31.566ZM14.4896 33.9039H7.25285C6.93634 33.9033 6.63296 33.7761 6.40922 33.55C6.18548 33.324 6.05963 33.0176 6.05927 32.698C6.05988 32.4846 6.11651 32.2751 6.2234 32.091C6.33028 31.9069 6.48359 31.7547 6.66772 31.6499C6.85184 31.545 7.06019 31.4914 7.27154 31.4944C7.48288 31.4973 7.68967 31.5568 7.87084 31.6668C7.94601 31.7114 8.03064 31.7373 8.1177 31.7422C8.20475 31.7472 8.29173 31.7311 8.37141 31.6954C8.45108 31.6596 8.52116 31.6051 8.57582 31.5365C8.63048 31.468 8.66815 31.3872 8.6857 31.3009C8.73827 31.0259 8.88403 30.7779 9.09797 30.5995C9.3119 30.4212 9.58066 30.3236 9.85809 30.3235C10.4501 30.3235 10.9457 30.7515 11.0373 31.3403C11.1009 31.7448 11.5869 31.9401 11.9082 31.6868C12.0664 31.5609 12.262 31.4925 12.4633 31.4928C12.892 31.4928 13.2645 31.8 13.35 32.2224C13.4012 32.4778 13.6234 32.6614 13.8818 32.6614H14.4902C14.6534 32.6614 14.8099 32.7269 14.9253 32.8434C15.0407 32.9599 15.1055 33.1179 15.1055 33.2826C15.1055 33.4474 15.0407 33.6054 14.9253 33.7219C14.8099 33.8384 14.6534 33.9039 14.4902 33.9039H14.4896ZM28.3839 2.33791H28.1652C27.9631 1.89903 27.6115 1.54813 27.1746 1.34919C26.7376 1.15025 26.2444 1.11654 25.7849 1.25421C25.5946 0.87539 25.3038 0.55746 24.9449 0.33597C24.586 0.11448 24.1731 -0.0018377 23.7525 2.19541e-05C23.3345 0.000443904 22.9246 0.116718 22.5676 0.336171C22.2105 0.555624 21.92 0.869833 21.7276 1.24455C21.3903 1.15531 21.0372 1.14532 20.6955 1.21535C20.3537 1.28537 20.0324 1.43355 19.7562 1.64851C19.48 1.86346 19.2563 2.13947 19.1022 2.45533C18.9482 2.7712 18.8678 3.11852 18.8674 3.47062C18.8679 4.08085 19.1082 4.66595 19.5355 5.09752C19.9628 5.52909 20.5422 5.77188 21.1466 5.77261H28.3833C28.8342 5.77224 29.2666 5.59119 29.5855 5.26921C29.9044 4.94722 30.0837 4.51062 30.0841 4.05526C30.0837 3.5999 29.9044 3.1633 29.5855 2.84131C29.2666 2.51933 28.8342 2.33828 28.3833 2.33791H28.3839ZM28.3839 4.67649H21.1472C20.8306 4.67612 20.5271 4.54896 20.3032 4.32289C20.0793 4.09683 19.9533 3.79032 19.953 3.47062C19.9533 3.25693 20.0098 3.04716 20.1167 2.86275C20.2236 2.67833 20.3771 2.52586 20.5615 2.42093C20.7458 2.31599 20.9545 2.26235 21.1661 2.26547C21.3777 2.26859 21.5847 2.32836 21.7659 2.43869C21.8411 2.4833 21.9257 2.50917 22.0128 2.51414C22.0998 2.51912 22.1868 2.50305 22.2665 2.46728C22.3462 2.43151 22.4162 2.37707 22.4709 2.30847C22.5256 2.23987 22.5632 2.1591 22.5808 2.07285C22.6335 1.79792 22.7793 1.55009 22.9932 1.37187C23.2071 1.19366 23.4758 1.09617 23.7532 1.09614C24.3452 1.09614 24.8408 1.5241 24.9324 2.1122C24.9953 2.51738 25.482 2.71272 25.8033 2.45939C25.9614 2.33347 26.157 2.26513 26.3584 2.26543C26.787 2.26543 27.1596 2.5726 27.2451 2.99503C27.2963 3.25042 27.5185 3.43403 27.7769 3.43403H28.3853C28.5485 3.43412 28.7049 3.49966 28.8203 3.61623C28.9356 3.7328 29.0003 3.89084 29.0002 4.0556C29.0001 4.22036 28.9352 4.37834 28.8198 4.49478C28.7043 4.61122 28.5478 4.67658 28.3846 4.67649H28.3839Z" fill="white"/>
</svg>
